<svg width="36" height="40" viewBox="0 0 36 40" fill="none" xmlns="http://www.w3.org/2000/svg">
<path d="M0 39.9501V0.0500488L3 3.05005L6 0.0500488L9 3.05005L12 0.0500488L15 3.05005L18 0.0500488L21 3.05005L24 0.0500488L27 3.05005L30 0.0500488L33 3.05005L36 0.0500488V39.9501L33 36.9501L30 39.9501L27 36.9501L24 39.9501L21 36.9501L18 39.9501L15 36.9501L12 39.9501L9 36.9501L6 39.9501L3 36.9501L0 39.9501ZM5.85 29.2001H30.35V26.2001H5.85V29.2001ZM5.85 21.5H30.35V18.5H5.85V21.5ZM5.85 13.75H30.35V10.75H5.85V13.75ZM3 34.9001H33V5.10005H3V34.9001ZM3 5.10005V34.9001V5.10005Z" fill="black"/>
</svg>
